# xmcd CD database file
#
# Track frame offsets:
#	150
#	17720
#	45326
#	66594
#	90957
#	122862
#	156623
#	183750
#	219609
#	249515
#	283021
#
# Disc length: 4578 seconds
#
# Revision: 0
# Processed by: cddbd v1.5PL3 Copyright (c) Steve Scherf et al.
# Submitted via: CDex 1.51
#
DISCID=9a11e00b
DTITLE=Miles Davis - Tune Up
DYEAR=1954
DGENRE=Jazz
TTITLE0=Tune Up
TTITLE1=Blue Haze
TTITLE2=Solar
TTITLE3=It's Only A Paper Moon
TTITLE4='Round About Midnight
TTITLE5=When Lights Are Low
TTITLE6=My Funny Valentine
TTITLE7=The Man I Love (Take 2)
TTITLE8=It Could Happen To You
TTITLE9=Just Squeeze Me
TTITLE10=Walkin'
EXTD=YEAR: 1954
EXTT0=
EXTT1=
EXTT2=
EXTT3=
EXTT4=
EXTT5=
EXTT6=
EXTT7=
EXTT8=
EXTT9=
EXTT10=
PLAYORDER=
